<?xml version="1.0" standalone="no"?>
<!DOCTYPE svg PUBLIC "-//W3C//DTD SVG 20010904//EN"
 "http://www.w3.org/TR/2001/REC-SVG-20010904/DTD/svg10.dtd">
<svg version="1.0" xmlns="http://www.w3.org/2000/svg"
 width="32.000000pt" height="32.000000pt" viewBox="0 0 32.000000 32.000000"
 preserveAspectRatio="xMidYMid meet">
<metadata>
Created by potrace 1.16, written by Peter Selinger 2001-2019
</metadata>
<g transform="translate(0.000000,32.000000) scale(0.100000,-0.100000)"
fill="#000000" stroke="none">
<path d="M127 314 c-4 -4 -7 -14 -7 -23 0 -8 -11 -27 -25 -41 -18 -19 -27 -43
-34 -94 -6 -38 -15 -74 -20 -79 -22 -22 -11 -37 27 -37 26 0 41 -6 50 -20 16
-27 68 -27 84 0 9 14 24 20 50 20 38 0 49 15 27 37 -5 5 -14 41 -20 79 -7 49
-16 76 -33 94 -13 14 -26 34 -28 45 -2 14 -12 21 -33 23 -17 2 -34 0 -38 -4z
m80 -86 c12 -10 15 -24 28 -115 l5 -43 -79 0 -80 0 6 57 c3 32 10 68 14 81 15
38 70 49 106 20z"/>
</g>
</svg>
